<svg width="33" height="33" viewBox="0 0 33 33" fill="none" xmlns="http://www.w3.org/2000/svg">
<g id="Music">
<path id="Vector" d="M28.3301 25.3268C28.3301 27.1682 26.8381 28.6602 24.9967 28.6602H7.66341C5.82274 28.6602 4.33008 27.1682 4.33008 25.3268V7.99349C4.33008 6.15216 5.82274 4.66016 7.66341 4.66016H24.9967C26.8381 4.66016 28.3301 6.15216 28.3301 7.99349V25.3268Z" fill="#F50057"/>
<path id="Vector_2" d="M13.5137 10.5405C13.2111 10.6105 12.9971 10.8798 12.9971 11.1905V19.9932C12.9971 20.3612 12.6984 20.6598 12.3304 20.6598H11.6637C10.1911 20.6598 8.99707 21.5552 8.99707 22.6598C8.99707 23.7645 10.1911 24.6598 11.6637 24.6598C13.1364 24.6598 14.3304 23.7645 14.3304 22.6598V14.8825C14.3304 14.5718 14.5444 14.3025 14.8471 14.2332L19.7177 13.1092C20.0311 13.0365 20.3304 13.2745 20.3304 13.5958V17.9932C20.3304 18.3612 20.0317 18.6598 19.6637 18.6598H18.9971C17.5244 18.6598 16.3304 19.5552 16.3304 20.6598C16.3304 21.7645 17.5244 22.6598 18.9971 22.6598C20.4697 22.6598 21.6637 21.7645 21.6637 20.6598V9.49783C21.6637 9.06917 21.2651 8.75183 20.8471 8.8485L13.5137 10.5405Z" fill="white"/>
</g>
</svg>
