<svg width="176" height="48" viewBox="0 0 176 48" fill="none" xmlns="http://www.w3.org/2000/svg">
<path d="M20 5H14V33H20V5Z" fill="url(#paint0_linear_153_2366)"/>
<path d="M31 11V5L14 5V11H31Z" fill="url(#paint1_linear_153_2366)"/>
<path d="M10 23C4.477 23 0 27.477 0 33C0 38.523 4.477 43 10 43C15.523 43 20 38.523 20 33C20 27.477 15.523 23 10 23Z" fill="url(#paint2_linear_153_2366)"/>
<path d="M20 5H14V11H20V5Z" fill="#EB0000"/>
<path d="M50.1875 32.5V17.236H44.2835V15.7H57.8675V17.236H51.9635V32.5H50.1875ZM65.2246 32.62C64.1526 32.62 63.2166 32.42 62.4166 32.02C61.6166 31.62 60.9926 31.02 60.5446 30.22C60.1126 29.42 59.8966 28.42 59.8966 27.22V19.9H61.6006V27.028C61.6006 28.372 61.9286 29.388 62.5846 30.076C63.2566 30.748 64.1926 31.084 65.3926 31.084C66.2726 31.084 67.0326 30.908 67.6726 30.556C68.3286 30.188 68.8246 29.66 69.1606 28.972C69.5126 28.284 69.6886 27.46 69.6886 26.5V19.9H71.3926V32.5H69.7606V29.044L70.0246 29.668C69.6246 30.596 69.0006 31.324 68.1526 31.852C67.3206 32.364 66.3446 32.62 65.2246 32.62ZM82.5736 19.78C83.5976 19.78 84.4936 19.98 85.2616 20.38C86.0456 20.764 86.6536 21.356 87.0856 22.156C87.5336 22.956 87.7576 23.964 87.7576 25.18V32.5H86.0536V25.348C86.0536 24.02 85.7176 23.02 85.0456 22.348C84.3896 21.66 83.4616 21.316 82.2616 21.316C81.3656 21.316 80.5816 21.5 79.9096 21.868C79.2536 22.22 78.7416 22.74 78.3736 23.428C78.0216 24.1 77.8456 24.916 77.8456 25.876V32.5H76.1416V19.9H77.7736V23.356L77.5096 22.708C77.9096 21.796 78.5496 21.084 79.4296 20.572C80.3096 20.044 81.3576 19.78 82.5736 19.78ZM97.7124 32.62C96.4004 32.62 95.2484 32.348 94.2564 31.804C93.2644 31.244 92.4884 30.484 91.9284 29.524C91.3684 28.548 91.0884 27.436 91.0884 26.188C91.0884 24.94 91.3524 23.836 91.8804 22.876C92.4244 21.916 93.1604 21.164 94.0884 20.62C95.0324 20.06 96.0884 19.78 97.2564 19.78C98.4404 19.78 99.4884 20.052 100.4 20.596C101.328 21.124 102.056 21.876 102.584 22.852C103.112 23.812 103.376 24.924 103.376 26.188C103.376 26.268 103.368 26.356 103.352 26.452C103.352 26.532 103.352 26.62 103.352 26.716H92.3844V25.444H102.44L101.768 25.948C101.768 25.036 101.568 24.228 101.168 23.524C100.784 22.804 100.256 22.244 99.5844 21.844C98.9124 21.444 98.1364 21.244 97.2564 21.244C96.3924 21.244 95.6164 21.444 94.9284 21.844C94.2404 22.244 93.7044 22.804 93.3204 23.524C92.9364 24.244 92.7444 25.068 92.7444 25.996V26.26C92.7444 27.22 92.9524 28.068 93.3684 28.804C93.8004 29.524 94.3924 30.092 95.1444 30.508C95.9124 30.908 96.7844 31.108 97.7604 31.108C98.5284 31.108 99.2404 30.972 99.8964 30.7C100.568 30.428 101.144 30.012 101.624 29.452L102.584 30.556C102.024 31.228 101.32 31.74 100.472 32.092C99.6404 32.444 98.7204 32.62 97.7124 32.62ZM113.486 32.5V15.7H114.95L122.63 28.804H121.862L129.47 15.7H130.934V32.5H129.23V18.364H129.638L122.63 30.364H121.79L114.734 18.364H115.19V32.5H113.486ZM141.256 32.62C140.184 32.62 139.248 32.42 138.448 32.02C137.648 31.62 137.024 31.02 136.576 30.22C136.144 29.42 135.928 28.42 135.928 27.22V19.9H137.632V27.028C137.632 28.372 137.96 29.388 138.616 30.076C139.288 30.748 140.224 31.084 141.424 31.084C142.304 31.084 143.064 30.908 143.704 30.556C144.36 30.188 144.856 29.66 145.192 28.972C145.544 28.284 145.72 27.46 145.72 26.5V19.9H147.424V32.5H145.792V29.044L146.056 29.668C145.656 30.596 145.032 31.324 144.184 31.852C143.352 32.364 142.376 32.62 141.256 32.62ZM155.557 32.62C154.517 32.62 153.533 32.476 152.605 32.188C151.677 31.884 150.949 31.508 150.421 31.06L151.189 29.716C151.701 30.1 152.357 30.436 153.157 30.724C153.957 30.996 154.797 31.132 155.677 31.132C156.877 31.132 157.741 30.948 158.269 30.58C158.797 30.196 159.061 29.692 159.061 29.068C159.061 28.604 158.909 28.244 158.605 27.988C158.317 27.716 157.933 27.516 157.453 27.388C156.973 27.244 156.437 27.124 155.845 27.028C155.253 26.932 154.661 26.82 154.069 26.692C153.493 26.564 152.965 26.38 152.485 26.14C152.005 25.884 151.613 25.54 151.309 25.108C151.021 24.676 150.877 24.1 150.877 23.38C150.877 22.692 151.069 22.076 151.453 21.532C151.837 20.988 152.397 20.564 153.133 20.26C153.885 19.94 154.797 19.78 155.869 19.78C156.685 19.78 157.501 19.892 158.317 20.116C159.133 20.324 159.805 20.604 160.333 20.956L159.589 22.324C159.029 21.94 158.429 21.668 157.789 21.508C157.149 21.332 156.509 21.244 155.869 21.244C154.733 21.244 153.893 21.444 153.349 21.844C152.821 22.228 152.557 22.724 152.557 23.332C152.557 23.812 152.701 24.188 152.989 24.46C153.293 24.732 153.685 24.948 154.165 25.108C154.661 25.252 155.197 25.372 155.773 25.468C156.365 25.564 156.949 25.684 157.525 25.828C158.117 25.956 158.653 26.14 159.133 26.38C159.629 26.604 160.021 26.932 160.309 27.364C160.613 27.78 160.765 28.332 160.765 29.02C160.765 29.756 160.557 30.396 160.141 30.94C159.741 31.468 159.149 31.884 158.365 32.188C157.597 32.476 156.661 32.62 155.557 32.62ZM169.244 32.62C167.932 32.62 166.78 32.348 165.788 31.804C164.796 31.244 164.02 30.484 163.46 29.524C162.9 28.548 162.62 27.436 162.62 26.188C162.62 24.94 162.884 23.836 163.412 22.876C163.956 21.916 164.692 21.164 165.62 20.62C166.564 20.06 167.62 19.78 168.788 19.78C169.972 19.78 171.02 20.052 171.932 20.596C172.86 21.124 173.588 21.876 174.116 22.852C174.644 23.812 174.908 24.924 174.908 26.188C174.908 26.268 174.9 26.356 174.884 26.452C174.884 26.532 174.884 26.62 174.884 26.716H163.916V25.444H173.972L173.3 25.948C173.3 25.036 173.1 24.228 172.7 23.524C172.316 22.804 171.788 22.244 171.116 21.844C170.444 21.444 169.668 21.244 168.788 21.244C167.924 21.244 167.148 21.444 166.46 21.844C165.772 22.244 165.236 22.804 164.852 23.524C164.468 24.244 164.276 25.068 164.276 25.996V26.26C164.276 27.22 164.484 28.068 164.9 28.804C165.332 29.524 165.924 30.092 166.676 30.508C167.444 30.908 168.316 31.108 169.292 31.108C170.06 31.108 170.772 30.972 171.428 30.7C172.1 30.428 172.676 30.012 173.156 29.452L174.116 30.556C173.556 31.228 172.852 31.74 172.004 32.092C171.172 32.444 170.252 32.62 169.244 32.62Z" fill="#343A40"/>
<defs>
<linearGradient id="paint0_linear_153_2366" x1="14" y1="5" x2="14" y2="33" gradientUnits="userSpaceOnUse">
<stop stop-color="#FF5C3D"/>
<stop offset="1" stop-color="#FF2A5F"/>
</linearGradient>
<linearGradient id="paint1_linear_153_2366" x1="31" y1="5" x2="14" y2="5" gradientUnits="userSpaceOnUse">
<stop stop-color="#FF5C3D"/>
<stop offset="1" stop-color="#FF2A5F"/>
</linearGradient>
<linearGradient id="paint2_linear_153_2366" x1="0" y1="23" x2="0" y2="43" gradientUnits="userSpaceOnUse">
<stop stop-color="#FF5C3D"/>
<stop offset="1" stop-color="#FF2A5F"/>
</linearGradient>
</defs>
</svg>
