<svg width="33" height="33" viewBox="0 0 33 33" fill="none" xmlns="http://www.w3.org/2000/svg">
<path id="Vector" d="M24.2037 0.75C24.1541 0.750755 24.1046 0.754621 24.0556 0.761574L24.0532 0.759259L23.9676 0.773148L8.62731 3.13194L8.625 3.13426C8.34358 3.17536 8.08633 3.31629 7.9002 3.53133C7.71406 3.74636 7.61146 4.02115 7.61111 4.30556C7.61094 4.31713 7.61094 4.3287 7.61111 4.34028V19.963C7.61111 21.3721 7.44981 22.0833 4.65278 22.0833C1.56419 22.0833 0.5 23.8858 0.5 25.6481C0.5 27.081 1.33674 29.2037 4.64815 29.2037C8.35659 29.2037 9.98148 26.9314 9.98148 24.919V9.56713L23.0185 7.44213V13.8565C23.4084 13.8126 23.8031 13.787 24.2037 13.787C24.6043 13.787 24.999 13.8126 25.3889 13.8565V1.93519C25.3889 1.62085 25.264 1.3194 25.0418 1.09713C24.8195 0.874867 24.518 0.75 24.2037 0.75ZM24.2037 16.1574C19.6218 16.1574 15.9074 19.8718 15.9074 24.4537C15.9074 29.0356 19.6218 32.75 24.2037 32.75C28.7856 32.75 32.5 29.0356 32.5 24.4537C32.5 19.8718 28.7856 16.1574 24.2037 16.1574ZM24.2037 19.713C24.8579 19.713 25.3889 20.2427 25.3889 20.8981V23.2685H27.7593C28.4135 23.2685 28.9444 23.7983 28.9444 24.4537C28.9444 25.1091 28.4135 25.6389 27.7593 25.6389H25.3889V28.0093C25.3889 28.6647 24.8579 29.1944 24.2037 29.1944C23.5495 29.1944 23.0185 28.6647 23.0185 28.0093V25.6389H20.6481C19.9939 25.6389 19.463 25.1091 19.463 24.4537C19.463 23.7983 19.9939 23.2685 20.6481 23.2685H23.0185V20.8981C23.0185 20.2427 23.5495 19.713 24.2037 19.713Z" fill="#343A40"/>
</svg>
