<svg width="33" height="33" viewBox="0 0 33 33" fill="none" xmlns="http://www.w3.org/2000/svg">
<g id="Spotify">
<path id="Vector" d="M16.3304 3.32715C8.94574 3.32715 2.99707 9.27582 2.99707 16.6605C2.99707 24.0451 8.94574 29.9938 16.3304 29.9938C23.7144 29.9938 29.6637 24.0451 29.6637 16.6605C29.6637 9.27582 23.7144 3.32715 16.3304 3.32715Z" fill="#8BC34A"/>
<path id="Vector_2" d="M21.4949 23.2698C21.3002 23.2698 21.1049 23.1732 20.9102 23.0752C19.0589 22.0038 16.8175 21.4192 14.3822 21.4192C13.0175 21.4192 11.6535 21.6132 10.3869 21.9058C10.1922 21.9058 9.89952 22.0032 9.80219 22.0032C9.31486 22.0032 9.02286 21.6125 9.02286 21.2232C9.02286 20.7365 9.31486 20.4432 9.70486 20.3472C11.2635 19.9565 12.8229 19.7625 14.4789 19.7625C17.2075 19.7625 19.7409 20.4432 21.8842 21.7118C22.1762 21.9058 22.3715 22.1012 22.3715 22.5878C22.2742 22.9785 21.8842 23.2698 21.4949 23.2698ZM22.8589 19.9565C22.5669 19.9565 22.3722 19.8605 22.1769 19.7625C20.1315 18.4958 17.3049 17.7152 14.0902 17.7152C12.5309 17.7152 11.0695 17.9105 9.99752 18.2038C9.70486 18.2998 9.60752 18.2998 9.41286 18.2998C8.82819 18.2998 8.43819 17.8132 8.43819 17.3258C8.43819 16.7412 8.73086 16.4485 9.21752 16.2545C10.6789 15.8652 12.1409 15.5725 14.1869 15.5725C17.5002 15.5725 20.7155 16.3525 23.2489 17.9105C23.6382 18.1045 23.8335 18.4952 23.8335 18.8845C23.8335 19.4698 23.4435 19.9565 22.8589 19.9565ZM24.4182 16.0605C24.1262 16.0605 24.0282 15.9632 23.7362 15.8665C21.3975 14.5018 17.8902 13.7218 14.4795 13.7218C12.7255 13.7218 10.9715 13.9172 9.41286 14.3065C9.21752 14.3065 9.02286 14.4038 8.73086 14.4038C8.04886 14.5012 7.56152 13.9172 7.56152 13.2345C7.56152 12.5525 7.95152 12.1632 8.43819 12.0652C10.2895 11.4805 12.2382 11.2852 14.4795 11.2852C18.1822 11.2852 22.0795 12.0652 25.0029 13.7212C25.3922 13.9165 25.6842 14.3058 25.6842 14.8905C25.5875 15.5725 25.0995 16.0605 24.4182 16.0605Z" fill="white"/>
</g>
</svg>
